<svg width="24" height="24" viewBox="0 0 24 24" fill="none" xmlns="http://www.w3.org/2000/svg">
<path d="M17.5 16.0858L13.4142 12L17.4998 7.91418C17.6874 7.72664 17.7927 7.47229 17.7927 7.20707C17.7927 6.94185 17.6874 6.6875 17.4998 6.49996C17.3123 6.31243 17.058 6.20707 16.7927 6.20707C16.5275 6.20707 16.2732 6.31243 16.0856 6.49996L12 10.5857L7.91434 6.5C7.7268 6.31246 7.47244 6.20711 7.20723 6.20711C6.94201 6.20711 6.68766 6.31246 6.50012 6.5C6.31259 6.68754 6.20723 6.94189 6.20723 7.20711C6.20723 7.47232 6.31259 7.72668 6.50012 7.91421L10.5858 12L6.50012 16.0856C6.31258 16.2731 6.20723 16.5275 6.20723 16.7927C6.20723 17.0579 6.31259 17.3123 6.50012 17.4998C6.68766 17.6873 6.94201 17.7927 7.20723 17.7927C7.47244 17.7927 7.7268 17.6873 7.91433 17.4998L12 13.4142L16.0858 17.5C16.2733 17.6875 16.5277 17.7929 16.7929 17.7929C17.0581 17.7929 17.3125 17.6875 17.5 17.5C17.6875 17.3125 17.7929 17.0581 17.7929 16.7929C17.7929 16.5277 17.6875 16.2733 17.5 16.0858Z" fill="#C3C3C6"/>
</svg>
